<svg width="35" height="37" xmlns="http://www.w3.org/2000/svg" xmlns:svg="http://www.w3.org/2000/svg">
	<g class="layer">
		<title>Layer 1</title>
		<g id="svg_1">
			<path d="m32.54458,33.5105l2.1172,0l0,3.4375l-11.902,0l-9.5586,-11.461l0,11.461l-13.203,0l2.8555,-6.5703l0,-18.664l-2.8476,-6.6133l12.484,0l5.0938,6.2695l0,-0.45703l0.50391,-0.44531l0,-1.6289l-0.95703,-0.65234l0,-2.4375l0.625,-1.1055l0,-0.89844l3.285,-3.0559l0.98,0.14453l3.332,-0.83203l4.5859,0.96875l2.6367,2.4922l0,1.0703l1,1.0156l0,2.5781l-0.95703,0.7539l0,1.5859l0.50781,0.44531l0,2.8867l-0.57422,0.33985l-0.00734,19.37241z" fill="#fff" id="svg_4"/>
			<path d="m23.36058,1.8775l1.9883,-0.49219l1.9258,0.49219l-0.008,1.0781l0.64454,-0.98828l1.3828,0.25l0.49219,0.49219l0.0156,0.44922l0.47266,-0.0195l1.0039,0.90234l0,1.043l0.95703,1.0156l0,1.375l-0.95703,0.75391l0,2.8438l0.50391,0.44531l0,1.5156l-0.50391,0.33593l0,22.23l-7.8906,0l-11.531,-13.809l0,13.812l-9.8125,0l2.1484,-4.9453l0,-19.223l-2.1484,-4.9961l9.8047,0l7.6484,9.375l0,-2.4453l-0.57422,-0.33593l0,-1.5156l0.50782,-0.44531l0,-2.9414l-0.95703,-0.65625l0,-1.375l0.62109,-1.1055l0,-0.64062l0.93359,-0.8125l0.53125,0.46484l0,-0.92187l0.95703,-0.96875l1.2109,0.18359l0.63281,0.69922l-0.00003,-1.11944z" fill="#006747" id="svg_5" transform="matrix(1, 0, 0, 1, 0, 0)"/>
			<path d="m30.36108,2.0547l-1.6016,0.40039l0,1.6016l-0.74219,0.76172l-0.0039,0.71289l1.7324,-0.36523l0,-0.57227l0.61523,-0.61523l0,-1.9238l0.00006,-0.00007zm-4.1699,0.75781l-0.9668,0.83008l0,1.5625l-0.62891,0.84375l0,0.70312l0.77148,-0.66406l0.82031,-0.17969l0,-0.56641l0.79492,-0.83008l0,-1.5723l-0.79102,-0.12695l0.00002,0.00004zm-2.1484,1.8164l-0.5957,0.57617l0,0.80469l-0.78125,1.3086l0,1.0801l0.76562,-0.6543l0,-0.51758l0.61133,-0.91797l0,-1.6797l0,-0.00001zm6.3184,1.957l-1.123,0.19141l-0.0039,3.5117l-1.416,0.21875l0,-3.4863l-0.81055,0.13672l-0.12695,0.03516l0,5.7559l3.4805,-0.43555l0,-5.9277l-0.0001,-0.00009zm-4.3906,0.8418l-0.68164,0.59375l0,3.2578l-0.86914,0.64453l0,-3.1504l-0.55859,0.48438l0,4.3848l-0.62891,0.55664l0,1.0059l2.7383,-2.0703l0,-5.707l-0.00002,-0.0001zm4.3906,6.5469l-3.4805,0.39063l0,9.1562l3.4805,4.2617l0,-13.809l0,0.00047zm-4.3906,0.71289l-2.0195,1.4688l0,3.7715l2.0195,2.4746l0,-7.7148l0,-0.0001z" fill="#fff" fill-rule="evenodd" id="svg_6" transform="translate(0.83352, 0.47906) scale(0.8)"/>
		</g>
	</g>

</svg>
